<mxfile host="app.diagrams.net" modified="2023-07-24T20:54:46.307Z" agent="Mozilla/5.0 (Windows NT 10.0; Win64; x64; rv:109.0) Gecko/20100101 Firefox/115.0" etag="SzqxjLcMxSebkfDp1Hfr" version="21.6.2" type="github">
  <diagram name="Page-1" id="mSkrQCTb6mMFP0I92MH9">
    <mxGraphModel dx="1464" dy="949" grid="1" gridSize="10" guides="1" tooltips="1" connect="1" arrows="1" fold="1" page="1" pageScale="1" pageWidth="850" pageHeight="1100" math="0" shadow="0">
      <root>
        <mxCell id="0" />
        <mxCell id="1" parent="0" />
        <mxCell id="k18f-LrCEGzRWncHFNrR-19" style="edgeStyle=orthogonalEdgeStyle;rounded=0;orthogonalLoop=1;jettySize=auto;html=1;exitX=0;exitY=0.5;exitDx=0;exitDy=0;exitPerimeter=0;entryX=0;entryY=0.75;entryDx=0;entryDy=0;" edge="1" parent="1" source="k18f-LrCEGzRWncHFNrR-2" target="k18f-LrCEGzRWncHFNrR-16">
          <mxGeometry relative="1" as="geometry" />
        </mxCell>
        <mxCell id="k18f-LrCEGzRWncHFNrR-23" value="Data in" style="edgeLabel;html=1;align=center;verticalAlign=middle;resizable=0;points=[];" vertex="1" connectable="0" parent="k18f-LrCEGzRWncHFNrR-19">
          <mxGeometry x="-0.029" y="1" relative="1" as="geometry">
            <mxPoint as="offset" />
          </mxGeometry>
        </mxCell>
        <mxCell id="k18f-LrCEGzRWncHFNrR-2" value="&lt;font style=&quot;font-size: 14px;&quot;&gt;&lt;b&gt;Raw data split into year&lt;/b&gt;&lt;/font&gt;&lt;br&gt;\\ds01\Battery\NRG2020\Upload_Forecasts_to_Traverse" style="shape=cylinder3;whiteSpace=wrap;html=1;boundedLbl=1;backgroundOutline=1;size=15;" vertex="1" parent="1">
          <mxGeometry x="515" y="190" width="200" height="90" as="geometry" />
        </mxCell>
        <mxCell id="k18f-LrCEGzRWncHFNrR-3" value="&lt;b&gt;Parquet files containing Energy data all ISOs in 5 year chunks&lt;/b&gt;&lt;br&gt;\\ds01\Battery\NRG2020\Upload_Forecasts_to_Traverse" style="shape=cylinder3;whiteSpace=wrap;html=1;boundedLbl=1;backgroundOutline=1;size=15;" vertex="1" parent="1">
          <mxGeometry x="1000" y="768" width="200" height="100" as="geometry" />
        </mxCell>
        <mxCell id="k18f-LrCEGzRWncHFNrR-7" style="edgeStyle=orthogonalEdgeStyle;rounded=0;orthogonalLoop=1;jettySize=auto;html=1;exitX=0.55;exitY=0.95;exitDx=0;exitDy=0;exitPerimeter=0;entryX=0;entryY=0.5;entryDx=0;entryDy=0;" edge="1" parent="1" source="k18f-LrCEGzRWncHFNrR-5" target="k18f-LrCEGzRWncHFNrR-6">
          <mxGeometry relative="1" as="geometry">
            <Array as="points">
              <mxPoint x="596" y="435" />
            </Array>
          </mxGeometry>
        </mxCell>
        <mxCell id="k18f-LrCEGzRWncHFNrR-5" value="&lt;b&gt;BLOB Storage&lt;/b&gt;" style="ellipse;shape=cloud;whiteSpace=wrap;html=1;" vertex="1" parent="1">
          <mxGeometry x="500" y="330" width="170" height="100" as="geometry" />
        </mxCell>
        <mxCell id="k18f-LrCEGzRWncHFNrR-12" style="edgeStyle=orthogonalEdgeStyle;rounded=0;orthogonalLoop=1;jettySize=auto;html=1;exitX=0;exitY=1;exitDx=0;exitDy=0;entryX=0;entryY=0.5;entryDx=0;entryDy=0;" edge="1" parent="1" source="k18f-LrCEGzRWncHFNrR-6" target="k18f-LrCEGzRWncHFNrR-8">
          <mxGeometry relative="1" as="geometry">
            <Array as="points">
              <mxPoint x="620" y="460" />
            </Array>
          </mxGeometry>
        </mxCell>
        <mxCell id="k18f-LrCEGzRWncHFNrR-6" value="Node_ID" style="text;html=1;strokeColor=none;fillColor=none;align=center;verticalAlign=middle;whiteSpace=wrap;rounded=0;" vertex="1" parent="1">
          <mxGeometry x="620" y="420" width="60" height="30" as="geometry" />
        </mxCell>
        <mxCell id="k18f-LrCEGzRWncHFNrR-14" style="edgeStyle=orthogonalEdgeStyle;rounded=0;orthogonalLoop=1;jettySize=auto;html=1;exitX=0;exitY=1;exitDx=0;exitDy=0;entryX=0;entryY=0.5;entryDx=0;entryDy=0;" edge="1" parent="1" source="k18f-LrCEGzRWncHFNrR-8" target="k18f-LrCEGzRWncHFNrR-9">
          <mxGeometry relative="1" as="geometry">
            <Array as="points">
              <mxPoint x="640" y="480" />
            </Array>
          </mxGeometry>
        </mxCell>
        <mxCell id="k18f-LrCEGzRWncHFNrR-8" value="Forecast Version" style="text;html=1;strokeColor=none;fillColor=none;align=center;verticalAlign=middle;whiteSpace=wrap;rounded=0;" vertex="1" parent="1">
          <mxGeometry x="640" y="450" width="100" height="20" as="geometry" />
        </mxCell>
        <mxCell id="k18f-LrCEGzRWncHFNrR-15" style="edgeStyle=orthogonalEdgeStyle;rounded=0;orthogonalLoop=1;jettySize=auto;html=1;exitX=0;exitY=1;exitDx=0;exitDy=0;" edge="1" parent="1" source="k18f-LrCEGzRWncHFNrR-9">
          <mxGeometry relative="1" as="geometry">
            <mxPoint x="680" y="500" as="targetPoint" />
            <Array as="points">
              <mxPoint x="665" y="500" />
            </Array>
          </mxGeometry>
        </mxCell>
        <mxCell id="k18f-LrCEGzRWncHFNrR-9" value="Product" style="text;html=1;strokeColor=none;fillColor=none;align=center;verticalAlign=middle;whiteSpace=wrap;rounded=0;" vertex="1" parent="1">
          <mxGeometry x="665" y="470" width="50" height="20" as="geometry" />
        </mxCell>
        <mxCell id="k18f-LrCEGzRWncHFNrR-10" value="year1_month2.parquet" style="text;html=1;strokeColor=none;fillColor=none;align=center;verticalAlign=middle;whiteSpace=wrap;rounded=0;" vertex="1" parent="1">
          <mxGeometry x="683" y="517" width="150" height="20" as="geometry" />
        </mxCell>
        <mxCell id="k18f-LrCEGzRWncHFNrR-20" style="edgeStyle=orthogonalEdgeStyle;rounded=0;orthogonalLoop=1;jettySize=auto;html=1;exitX=0;exitY=0.25;exitDx=0;exitDy=0;entryX=0.07;entryY=0.4;entryDx=0;entryDy=0;entryPerimeter=0;" edge="1" parent="1" source="k18f-LrCEGzRWncHFNrR-16" target="k18f-LrCEGzRWncHFNrR-5">
          <mxGeometry relative="1" as="geometry" />
        </mxCell>
        <mxCell id="k18f-LrCEGzRWncHFNrR-24" value="Data out" style="edgeLabel;html=1;align=center;verticalAlign=middle;resizable=0;points=[];" vertex="1" connectable="0" parent="k18f-LrCEGzRWncHFNrR-20">
          <mxGeometry x="-0.5313" y="-3" relative="1" as="geometry">
            <mxPoint as="offset" />
          </mxGeometry>
        </mxCell>
        <mxCell id="k18f-LrCEGzRWncHFNrR-16" value="&lt;div&gt;&lt;b&gt;Run :&lt;/b&gt;&lt;/div&gt;&lt;div&gt;&lt;b&gt;parse_forecast_prices.py&lt;/b&gt;&lt;/div&gt;&lt;div&gt;&lt;b&gt;&lt;br&gt;&lt;/b&gt;&lt;/div&gt;&lt;div&gt;Split data by month and product. Keeping duplicate ancillary product data.&lt;/div&gt;" style="rounded=0;whiteSpace=wrap;html=1;direction=west;fontStyle=0" vertex="1" parent="1">
          <mxGeometry x="40" y="220" width="200" height="110" as="geometry" />
        </mxCell>
        <mxCell id="k18f-LrCEGzRWncHFNrR-40" style="edgeStyle=orthogonalEdgeStyle;rounded=0;orthogonalLoop=1;jettySize=auto;html=1;exitX=1;exitY=1;exitDx=0;exitDy=0;entryX=0.5;entryY=0;entryDx=0;entryDy=0;" edge="1" parent="1" source="k18f-LrCEGzRWncHFNrR-18" target="k18f-LrCEGzRWncHFNrR-39">
          <mxGeometry relative="1" as="geometry">
            <Array as="points">
              <mxPoint x="633" y="758" />
            </Array>
          </mxGeometry>
        </mxCell>
        <mxCell id="k18f-LrCEGzRWncHFNrR-41" value="Yes" style="edgeLabel;html=1;align=center;verticalAlign=middle;resizable=0;points=[];" vertex="1" connectable="0" parent="k18f-LrCEGzRWncHFNrR-40">
          <mxGeometry x="-0.0044" y="1" relative="1" as="geometry">
            <mxPoint as="offset" />
          </mxGeometry>
        </mxCell>
        <mxCell id="k18f-LrCEGzRWncHFNrR-47" style="edgeStyle=orthogonalEdgeStyle;rounded=0;orthogonalLoop=1;jettySize=auto;html=1;exitX=0;exitY=1;exitDx=0;exitDy=0;entryX=0.285;entryY=-0.096;entryDx=0;entryDy=0;entryPerimeter=0;" edge="1" parent="1" source="k18f-LrCEGzRWncHFNrR-18">
          <mxGeometry relative="1" as="geometry">
            <mxPoint x="338.4749999999999" y="864.3199999999999" as="targetPoint" />
          </mxGeometry>
        </mxCell>
        <mxCell id="k18f-LrCEGzRWncHFNrR-18" value="&lt;div&gt;If ancillary&lt;/div&gt;&lt;div&gt;&amp;nbsp;product&lt;/div&gt;" style="rhombus;whiteSpace=wrap;html=1;" vertex="1" parent="1">
          <mxGeometry x="330" y="778" width="100" height="80" as="geometry" />
        </mxCell>
        <mxCell id="k18f-LrCEGzRWncHFNrR-27" value="&lt;div&gt;&lt;b&gt;Request :&amp;nbsp;&lt;/b&gt;&lt;/div&gt;&lt;div&gt;&lt;b&gt;Get forecasts&lt;br&gt;&lt;/b&gt;&lt;/div&gt;&lt;div&gt;&lt;b&gt;&lt;br&gt;&lt;/b&gt;&lt;/div&gt;&lt;div align=&quot;center&quot;&gt;The user provides:&lt;/div&gt;&lt;div align=&quot;left&quot;&gt;forecast version&lt;/div&gt;&lt;div align=&quot;left&quot;&gt;Node&lt;/div&gt;&lt;div align=&quot;left&quot;&gt;product&lt;/div&gt;&lt;div align=&quot;left&quot;&gt;start date&lt;/div&gt;&lt;div align=&quot;left&quot;&gt;end date&lt;/div&gt;&lt;div align=&quot;left&quot;&gt;frequency&lt;br&gt;&lt;/div&gt;&lt;div align=&quot;left&quot;&gt;time interval(beginning or end)&lt;/div&gt;&lt;div align=&quot;left&quot;&gt;Output time zone&lt;br&gt;&lt;/div&gt;&lt;div&gt;&lt;br&gt;&lt;br&gt;&lt;/div&gt;" style="rounded=1;whiteSpace=wrap;html=1;" vertex="1" parent="1">
          <mxGeometry x="35" y="390" width="205" height="210" as="geometry" />
        </mxCell>
        <mxCell id="k18f-LrCEGzRWncHFNrR-28" value="&lt;div&gt;Format node, product, start and end data to look up a set of months in blob storage&lt;/div&gt;" style="rounded=0;whiteSpace=wrap;html=1;" vertex="1" parent="1">
          <mxGeometry x="298" y="408" width="135" height="80" as="geometry" />
        </mxCell>
        <mxCell id="k18f-LrCEGzRWncHFNrR-29" value="year1_month1.parquet" style="text;html=1;strokeColor=none;fillColor=none;align=center;verticalAlign=middle;whiteSpace=wrap;rounded=0;" vertex="1" parent="1">
          <mxGeometry x="683" y="498" width="150" height="20" as="geometry" />
        </mxCell>
        <mxCell id="k18f-LrCEGzRWncHFNrR-30" value="&lt;p style=&quot;line-height: 140%; font-size: 13px;&quot;&gt;&lt;font size=&quot;1&quot;&gt;&lt;b style=&quot;font-size: 19px;&quot;&gt;...&lt;/b&gt;&lt;/font&gt;&lt;/p&gt;" style="text;html=1;strokeColor=none;fillColor=none;align=center;verticalAlign=middle;whiteSpace=wrap;rounded=0;" vertex="1" parent="1">
          <mxGeometry x="690" y="537" width="70" height="20" as="geometry" />
        </mxCell>
        <mxCell id="k18f-LrCEGzRWncHFNrR-31" style="edgeStyle=orthogonalEdgeStyle;rounded=0;orthogonalLoop=1;jettySize=auto;html=1;exitX=0;exitY=1;exitDx=0;exitDy=0;" edge="1" parent="1" target="k18f-LrCEGzRWncHFNrR-10">
          <mxGeometry relative="1" as="geometry">
            <mxPoint x="683" y="528" as="targetPoint" />
            <mxPoint x="665" y="490" as="sourcePoint" />
            <Array as="points">
              <mxPoint x="665" y="530" />
            </Array>
          </mxGeometry>
        </mxCell>
        <mxCell id="k18f-LrCEGzRWncHFNrR-32" style="edgeStyle=orthogonalEdgeStyle;rounded=0;orthogonalLoop=1;jettySize=auto;html=1;exitX=0;exitY=1;exitDx=0;exitDy=0;" edge="1" parent="1">
          <mxGeometry relative="1" as="geometry">
            <mxPoint x="683" y="547" as="targetPoint" />
            <mxPoint x="665" y="507" as="sourcePoint" />
            <Array as="points">
              <mxPoint x="665" y="547" />
            </Array>
          </mxGeometry>
        </mxCell>
        <mxCell id="k18f-LrCEGzRWncHFNrR-33" value="get data from blob storage one month at a time" style="rounded=0;whiteSpace=wrap;html=1;" vertex="1" parent="1">
          <mxGeometry x="298" y="595" width="135" height="80" as="geometry" />
        </mxCell>
        <mxCell id="k18f-LrCEGzRWncHFNrR-35" style="edgeStyle=orthogonalEdgeStyle;rounded=0;orthogonalLoop=1;jettySize=auto;html=1;exitX=1;exitY=0.5;exitDx=0;exitDy=0;entryX=0;entryY=0.5;entryDx=0;entryDy=0;" edge="1" parent="1" source="k18f-LrCEGzRWncHFNrR-34" target="k18f-LrCEGzRWncHFNrR-18">
          <mxGeometry relative="1" as="geometry" />
        </mxCell>
        <mxCell id="k18f-LrCEGzRWncHFNrR-34" value="get data from blob storage one month at a time" style="rounded=0;whiteSpace=wrap;html=1;" vertex="1" parent="1">
          <mxGeometry x="300" y="690" width="135" height="80" as="geometry" />
        </mxCell>
        <mxCell id="k18f-LrCEGzRWncHFNrR-37" value="&lt;div&gt;If no such data&lt;/div&gt;" style="rhombus;whiteSpace=wrap;html=1;" vertex="1" parent="1">
          <mxGeometry x="308" y="498" width="100" height="80" as="geometry" />
        </mxCell>
        <mxCell id="k18f-LrCEGzRWncHFNrR-38" value="Return data set filled with None" style="rounded=0;whiteSpace=wrap;html=1;" vertex="1" parent="1">
          <mxGeometry x="438" y="498" width="135" height="80" as="geometry" />
        </mxCell>
        <mxCell id="k18f-LrCEGzRWncHFNrR-44" style="edgeStyle=orthogonalEdgeStyle;rounded=0;orthogonalLoop=1;jettySize=auto;html=1;exitX=0;exitY=0.5;exitDx=0;exitDy=0;" edge="1" parent="1" source="k18f-LrCEGzRWncHFNrR-39">
          <mxGeometry relative="1" as="geometry">
            <mxPoint x="434.9999999999998" y="912" as="targetPoint" />
          </mxGeometry>
        </mxCell>
        <mxCell id="k18f-LrCEGzRWncHFNrR-39" value="Sum all values for each interval and &quot;TYPE&quot;(unkown), returning the sum." style="rounded=0;whiteSpace=wrap;html=1;" vertex="1" parent="1">
          <mxGeometry x="565" y="803" width="135" height="80" as="geometry" />
        </mxCell>
        <mxCell id="k18f-LrCEGzRWncHFNrR-46" value="Send result to user" style="rounded=0;whiteSpace=wrap;html=1;" vertex="1" parent="1">
          <mxGeometry x="100" y="860" width="135" height="80" as="geometry" />
        </mxCell>
      </root>
    </mxGraphModel>
  </diagram>
</mxfile>
